<svg width="20" height="18" viewBox="0 0 20 18" fill="none" xmlns="http://www.w3.org/2000/svg">
<path d="M16.7737 4.01567L12.7737 1.349C11.0942 0.229336 8.90624 0.229337 7.22674 1.349L3.22669 4.0157C1.83573 4.94301 1.00022 6.50412 1.00019 8.17585L1.00006 14.7498C1.00003 16.2687 2.23129 17.5 3.75015 17.5C5.26898 17.5 6.50024 16.2687 6.50024 14.7499V13.5C6.50024 11.8431 7.84339 10.5 9.50024 10.5H10.5002C12.1571 10.5 13.5002 11.8431 13.5002 13.5V14.75C13.5002 16.2688 14.7315 17.5 16.2502 17.5C17.769 17.5 19.0002 16.2688 19.0002 14.75V8.17592C19.0002 6.50415 18.1647 4.943 16.7737 4.01567Z" fill="#0063A9" stroke="#0063A9" stroke-linecap="round"/>
</svg>
