<svg width="20" height="21" viewBox="0 0 20 21" fill="none" xmlns="http://www.w3.org/2000/svg">
<path fill-rule="evenodd" clip-rule="evenodd" d="M9.96308 1.50006H10.0369C11.543 1.50006 12.7236 1.50005 13.6691 1.58523C14.6324 1.67201 15.424 1.85184 16.1292 2.25596C17.0095 2.7605 17.7396 3.49053 18.2441 4.3709C18.6482 5.07605 18.828 5.86762 18.9148 6.83094C19 7.77642 19 8.95711 19 10.4632V10.537C19 11.3638 19 12.0926 18.9859 12.7382C18.1463 11.1683 16.491 10.1003 14.5862 10.1003C11.8325 10.1003 9.60015 12.3326 9.60015 15.0864C9.60015 16.9911 10.6682 18.6463 12.238 19.486C11.5924 19.5001 10.8637 19.5001 10.0369 19.5001H9.9631C8.45705 19.5001 7.27636 19.5001 6.33088 19.4149C5.36756 19.3281 4.57599 19.1483 3.87084 18.7442C2.99046 18.2396 2.26044 17.5096 1.7559 16.6292C1.35178 15.9241 1.17195 15.1325 1.08517 14.1692C0.99999 13.2237 0.999995 12.043 1 10.537V10.4631C0.999995 8.95711 0.99999 7.77642 1.08517 6.83094C1.17195 5.86762 1.35178 5.07605 1.7559 4.3709C2.26044 3.49053 2.99046 2.7605 3.87084 2.25596C4.57599 1.85184 5.36756 1.67201 6.33088 1.58523C7.27636 1.50005 8.45705 1.50006 9.96308 1.50006ZM4.28996 6.52786C4.28996 6.11653 4.62342 5.78307 5.03475 5.78307H10.4624C10.8738 5.78307 11.2072 6.11653 11.2072 6.52786C11.2072 6.9392 10.8738 7.27265 10.4624 7.27265H5.03475C4.62342 7.27265 4.28996 6.9392 4.28996 6.52786ZM5.03475 8.53481C4.62342 8.53481 4.28996 8.86826 4.28996 9.2796C4.28996 9.69093 4.62342 10.0244 5.03475 10.0244H7.71068C8.12202 10.0244 8.45547 9.69093 8.45547 9.2796C8.45547 8.86826 8.12202 8.53481 7.71068 8.53481H5.03475Z" fill="#0063A9"/>
<path fill-rule="evenodd" clip-rule="evenodd" d="M14.5837 11.584C12.6508 11.584 11.0839 13.1509 11.0839 15.0838C11.0839 17.0166 12.6508 18.5835 14.5837 18.5835C15.2787 18.5835 15.9264 18.381 16.4709 18.0316L17.7196 19.2803C18.0125 19.5732 18.4874 19.5732 18.7803 19.2803C19.0732 18.9874 19.0732 18.5126 18.7803 18.2197L17.5316 16.971C17.8809 16.4264 18.0835 15.7788 18.0835 15.0838C18.0835 13.1509 16.5166 11.584 14.5837 11.584ZM12.5839 15.0838C12.5839 13.9793 13.4793 13.084 14.5837 13.084C15.6881 13.084 16.5835 13.9793 16.5835 15.0838C16.5835 16.1882 15.6881 17.0835 14.5837 17.0835C13.4793 17.0835 12.5839 16.1882 12.5839 15.0838Z" fill="#0063A9"/>
</svg>
