<svg width="23" height="21" viewBox="0 0 23 21" fill="none" xmlns="http://www.w3.org/2000/svg">
<path d="M1.00024 1.18182L2.51801 1.61547C3.74456 1.96591 4.69086 2.94428 5.00024 4.18182V4.18182M5.00024 4.18182L5.06878 10.8296C5.08288 12.1978 5.73299 13.4814 6.82756 14.3023V14.3023C7.58876 14.8732 8.5146 15.1818 9.4661 15.1818H18.5002C19.4674 15.1818 20.4017 14.8314 21.1304 14.1955V14.1955C22.0008 13.4359 22.5002 12.3371 22.5002 11.1818V6.74248C22.5002 6.06336 22.2305 5.41204 21.7502 4.93182V4.93182C21.27 4.45161 20.6187 4.18182 19.9396 4.18182H5.00024Z" stroke="black" stroke-linecap="round"/>
<path d="M9.59131 18.8181C9.59131 19.6465 8.91974 20.3181 8.09131 20.3181C7.26288 20.3181 6.59131 19.6465 6.59131 18.8181C6.59131 17.9897 7.26288 17.3181 8.09131 17.3181C8.91974 17.3181 9.59131 17.9897 9.59131 18.8181Z" stroke="black"/>
<path d="M21.2278 18.8181C21.2278 19.6465 20.5562 20.3181 19.7278 20.3181C18.8994 20.3181 18.2278 19.6465 18.2278 18.8181C18.2278 17.9897 18.8994 17.3181 19.7278 17.3181C20.5562 17.3181 21.2278 17.9897 21.2278 18.8181Z" stroke="black"/>
</svg>
