<svg width="20" height="19" viewBox="0 0 20 19" fill="none" xmlns="http://www.w3.org/2000/svg">
<path d="M16.7737 5.01567L12.7737 2.349C11.0942 1.22934 8.90624 1.22934 7.22674 2.349L3.22669 5.0157C1.83573 5.94301 1.00022 7.50412 1.00019 9.17585L1.00006 15.7498C1.00003 17.2687 2.23129 18.5 3.75015 18.5C5.26898 18.5 6.50024 17.2687 6.50024 15.7499V14.5C6.50024 12.8431 7.84339 11.5 9.50024 11.5H10.5002C12.1571 11.5 13.5002 12.8431 13.5002 14.5V15.75C13.5002 17.2688 14.7315 18.5 16.2502 18.5C17.769 18.5 19.0002 17.2688 19.0002 15.75V9.17592C19.0002 7.50415 18.1647 5.943 16.7737 5.01567Z" stroke="black" stroke-linecap="round"/>
</svg>
