<svg width="21" height="24" viewBox="0 0 21 24" fill="none" xmlns="http://www.w3.org/2000/svg">
<path d="M6.21776 19.638C5.19777 19.4331 4.18766 19.1544 3.19487 18.8019C0.615877 17.886 0.204696 13.8627 2.5222 12.358C3.01716 12.0366 3.7099 11.4368 3.78374 9.92243L3.78374 7.98294C3.78374 4.06937 6.79071 0.89679 10.5 0.89679C14.2093 0.89679 17.2163 4.06937 17.2163 7.98294L17.2163 9.92243C17.2163 11.6414 17.9828 12.0366 18.4778 12.358C20.7953 13.8627 20.384 17.886 17.805 18.8019C16.8122 19.1544 15.8023 19.4331 14.7823 19.638L14.7802 19.6428M6.21776 19.638L6.21989 19.6428C6.37875 19.9978 6.62357 20.476 6.96701 20.9592C7.64477 21.9127 8.7952 23 10.5 23C12.2049 23 13.3553 21.9127 14.033 20.9592C14.3765 20.476 14.6213 19.9978 14.7802 19.6428M6.21776 19.638C8.10114 19.9067 12.4503 20.2838 14.7802 19.6428" stroke="white" stroke-linecap="round" stroke-linejoin="round"/>
</svg>
